<?xml version="1.0" standalone="no"?>
<!DOCTYPE svg PUBLIC "-//W3C//DTD SVG 20010904//EN"
 "http://www.w3.org/TR/2001/REC-SVG-20010904/DTD/svg10.dtd">
<svg version="1.0" xmlns="http://www.w3.org/2000/svg"
 width="1024.000000pt" height="1024.000000pt" viewBox="0 0 1024.000000 1024.000000"
 preserveAspectRatio="xMidYMid meet">
<metadata>
Created by potrace 1.11, written by Peter Selinger 2001-2013
</metadata>
<g transform="translate(0.000000,1024.000000) scale(0.100000,-0.100000)"
fill="#000000" stroke="none">
<path d="M7626 8583 c-4 -4 -26 -8 -49 -9 -102 -3 -153 -8 -169 -16 -13 -6
-18 -5 -18 4 0 8 -3 9 -8 3 -9 -13 -52 -13 -71 -1 -10 6 -12 6 -7 -2 5 -8 -1
-12 -16 -13 -13 -1 -34 -4 -48 -6 -14 -2 -40 -4 -57 -4 -18 1 -33 -2 -33 -7 0
-4 -17 -8 -38 -9 -20 0 -57 -4 -82 -8 -25 -4 -52 -8 -60 -8 -8 0 -18 -5 -22
-11 -6 -8 -11 -6 -18 4 -5 8 -10 10 -10 5 0 -6 -17 -12 -37 -13 -20 -2 -44 -8
-52 -15 -12 -10 -13 -9 -6 3 7 12 6 13 -6 4 -8 -6 -22 -12 -31 -13 -10 0 -26
-2 -35 -2 -10 -1 -24 -7 -32 -13 -12 -9 -13 -8 -6 4 7 12 6 13 -6 3 -8 -7 -24
-12 -34 -12 -38 -1 -55 -4 -55 -11 0 -3 -15 -6 -32 -5 -18 0 -35 -3 -38 -7 -5
-6 -68 -18 -107 -21 -7 0 -13 -3 -13 -6 0 -7 -35 -13 -82 -15 -14 -1 -25 -3
-23 -6 2 -3 -42 -17 -98 -30 -56 -13 -109 -25 -117 -28 -8 -2 -23 -4 -32 -5
-10 -1 -18 -4 -18 -7 0 -4 -6 -7 -12 -8 -17 -1 -53 -10 -53 -13 0 -1 -13 -2
-28 -3 -16 -1 -31 -6 -35 -12 -4 -5 -14 -10 -22 -10 -8 0 -22 -3 -30 -6 -8 -3
-35 -11 -60 -18 -25 -7 -52 -14 -60 -17 -8 -2 -16 -4 -17 -4 -2 0 -21 -6 -43
-14 -22 -8 -40 -11 -40 -7 0 4 -4 2 -8 -5 -4 -6 -20 -14 -35 -17 -14 -2 -31
-7 -37 -11 -6 -4 -22 -9 -37 -11 -15 -3 -31 -8 -37 -12 -6 -3 -15 -7 -21 -9
-5 -1 -21 -4 -34 -7 -14 -3 -28 -11 -33 -18 -6 -10 -8 -10 -8 0 0 7 -5 10 -10
7 -6 -4 -8 -11 -5 -16 3 -5 0 -6 -8 -3 -7 2 -24 1 -38 -4 -13 -5 -28 -11 -34
-12 -5 -1 -15 -6 -20 -10 -6 -5 -24 -11 -40 -14 -15 -3 -31 -9 -34 -14 -3 -5
-14 -8 -23 -6 -10 1 -18 -2 -18 -7 0 -6 -4 -8 -9 -4 -5 3 -12 1 -16 -5 -4 -6
-11 -8 -16 -5 -5 4 -9 1 -9 -5 0 -6 -4 -9 -9 -5 -5 3 -12 1 -16 -5 -4 -6 -11
-8 -16 -5 -5 4 -9 1 -9 -4 0 -6 -3 -10 -7 -10 -15 3 -73 -14 -73 -21 0 -3 -7
-7 -15 -8 -8 -1 -22 -3 -30 -4 -8 -1 -15 -5 -15 -10 0 -4 -9 -8 -19 -8 -11 0
-23 -4 -26 -10 -3 -5 -12 -10 -19 -10 -8 0 -31 -8 -52 -17 -22 -9 -41 -17 -44
-18 -3 0 -15 -6 -27 -13 -13 -7 -23 -10 -23 -8 0 3 -23 -6 -51 -20 -28 -15
-56 -27 -63 -28 -6 -1 -17 -5 -23 -9 -7 -5 -13 -5 -13 -2 0 4 -7 -1 -16 -9 -8
-9 -20 -14 -25 -11 -5 4 -9 1 -9 -4 0 -6 -3 -10 -7 -9 -5 1 -25 -5 -45 -15
-21 -9 -55 -25 -75 -34 -21 -10 -41 -16 -45 -15 -5 1 -8 -3 -8 -9 0 -6 -7 -9
-15 -5 -8 3 -15 2 -15 -3 0 -8 -38 -24 -52 -22 -5 1 -8 -4 -8 -11 0 -6 -3 -8
-7 -5 -3 4 -12 -1 -20 -11 -8 -9 -12 -11 -8 -5 4 9 1 11 -9 7 -9 -3 -16 -10
-16 -15 0 -5 -3 -8 -7 -7 -5 1 -57 -22 -118 -51 -60 -29 -112 -53 -115 -53 -3
0 -17 -9 -32 -19 -14 -10 -33 -19 -41 -19 -9 0 -17 -3 -19 -7 -1 -5 -39 -26
-83 -47 -44 -22 -82 -43 -83 -48 -2 -4 -8 -6 -13 -2 -5 3 -9 0 -9 -5 0 -6 -9
-11 -20 -11 -11 0 -20 -4 -20 -8 0 -4 -16 -14 -35 -21 -19 -7 -35 -17 -35 -22
0 -5 -9 -9 -20 -9 -10 0 -29 -10 -41 -22 -12 -13 -18 -16 -14 -8 7 12 5 12
-11 -1 -10 -9 -39 -27 -64 -40 -25 -13 -47 -27 -50 -30 -7 -8 -44 -22 -52 -21
-5 1 -8 -2 -8 -6 0 -5 -25 -22 -55 -37 -30 -16 -55 -34 -55 -39 0 -5 -3 -6 -7
-3 -3 4 -13 1 -21 -5 -17 -15 -49 -34 -79 -47 -13 -6 -23 -15 -23 -21 0 -5 -3
-9 -7 -8 -11 3 -143 -75 -143 -84 0 -4 -5 -8 -11 -8 -6 0 -30 -13 -54 -30 -24
-16 -48 -30 -54 -30 -6 0 -11 -4 -11 -8 0 -5 -20 -19 -45 -32 -25 -13 -45 -27
-45 -32 0 -4 -7 -8 -15 -8 -9 0 -18 -7 -21 -15 -4 -8 -10 -12 -15 -9 -5 3 -9
0 -9 -5 0 -6 -7 -11 -15 -11 -8 0 -15 -5 -15 -11 0 -5 -13 -15 -30 -20 -16 -6
-30 -14 -30 -18 0 -4 -18 -17 -40 -30 -22 -12 -40 -27 -40 -32 0 -6 -4 -7 -10
-4 -5 3 -10 2 -10 -2 0 -5 -16 -17 -35 -27 -19 -11 -35 -23 -35 -28 0 -4 -7
-8 -15 -8 -7 0 -18 -6 -22 -12 -4 -7 -30 -29 -58 -48 -27 -19 -51 -38 -53 -42
-2 -4 -10 -8 -17 -8 -7 0 -16 -7 -19 -16 -4 -9 -9 -14 -12 -11 -3 3 -17 -4
-30 -16 -57 -51 -64 -57 -69 -57 -3 1 -28 -18 -56 -42 -71 -59 -75 -58 -74 21
0 36 4 72 8 78 4 6 4 14 -1 17 -4 2 -8 28 -7 58 0 29 -4 56 -10 61 -6 4 -5 10
4 16 8 5 9 11 3 15 -6 3 -9 17 -7 31 1 14 -2 25 -6 25 -5 0 -4 11 1 25 7 17 6
25 -1 25 -6 0 -9 9 -6 20 3 11 2 20 -2 20 -4 0 -6 12 -5 28 1 15 -2 32 -5 37
-4 6 -8 24 -10 40 -2 17 -6 32 -10 35 -4 3 -6 12 -6 20 0 8 -6 21 -15 28 -10
9 -11 11 -1 6 19 -10 -41 76 -71 101 -13 11 -37 26 -53 34 -17 7 -37 16 -45
20 -26 12 -173 6 -178 -7 -2 -7 -8 -10 -12 -7 -11 7 -90 -17 -90 -27 0 -3 -11
-5 -25 -3 -14 1 -25 -1 -25 -4 0 -7 -59 -31 -74 -30 -5 0 -12 -3 -15 -8 -3 -4
-24 -17 -46 -28 -22 -11 -61 -34 -87 -52 -26 -18 -52 -33 -57 -33 -5 0 -12 -7
-15 -16 -4 -9 -9 -14 -12 -11 -4 3 -15 -4 -25 -16 -10 -12 -18 -18 -19 -14 0
4 -15 -7 -34 -25 -63 -61 -84 -78 -93 -78 -5 0 -16 -11 -23 -25 -7 -13 -16
-23 -19 -21 -9 4 -80 -71 -73 -78 3 -3 0 -6 -6 -6 -14 0 -68 -52 -64 -62 1 -5
-5 -8 -13 -8 -8 0 -15 -4 -15 -8 0 -5 -21 -31 -47 -58 -27 -28 -64 -70 -83
-94 -19 -24 -44 -53 -55 -66 -11 -12 -27 -32 -35 -45 -8 -12 -23 -29 -32 -37
-9 -9 -15 -19 -12 -24 3 -4 1 -8 -5 -8 -19 0 -116 -154 -106 -170 3 -4 0 -10
-7 -12 -6 -2 -13 -13 -14 -24 -3 -24 -12 -59 -14 -59 -7 0 -5 -152 2 -161 4
-6 9 -23 10 -38 1 -14 6 -26 10 -26 4 0 8 -7 8 -15 0 -15 16 -48 35 -72 6 -7
15 -18 20 -25 6 -7 24 -31 40 -53 17 -22 35 -45 41 -51 5 -6 26 -31 45 -54 18
-24 42 -51 51 -61 9 -9 14 -20 11 -22 -2 -3 5 -8 16 -12 12 -3 21 -10 21 -15
0 -9 16 -28 92 -112 16 -17 28 -34 28 -40 0 -5 4 -6 10 -3 5 3 10 2 10 -4 0
-5 9 -13 20 -16 20 -6 28 -35 10 -35 -5 0 -10 -5 -10 -11 0 -6 -14 -28 -31
-48 -16 -20 -39 -47 -50 -59 -10 -13 -19 -28 -19 -33 0 -5 -5 -9 -12 -9 -6 0
-9 -3 -6 -6 4 -3 -1 -14 -10 -24 -35 -37 -57 -67 -72 -94 -8 -15 -25 -39 -37
-52 -13 -14 -23 -32 -23 -40 0 -8 -7 -17 -15 -20 -8 -4 -12 -10 -9 -15 3 -5 0
-9 -6 -9 -6 0 -8 -4 -5 -10 3 -6 -1 -10 -10 -10 -9 0 -13 -4 -10 -10 3 -5 1
-10 -5 -10 -6 0 -8 -5 -5 -10 3 -6 3 -10 -2 -10 -4 0 -17 -18 -27 -40 -10 -22
-23 -37 -28 -34 -5 3 -8 2 -7 -3 3 -17 -1 -32 -14 -45 -6 -7 -21 -32 -32 -55
-11 -24 -24 -43 -28 -43 -5 0 -5 -4 -2 -10 3 -5 1 -10 -5 -10 -6 0 -9 -4 -6
-9 4 -5 3 -11 -1 -13 -11 -4 -63 -110 -63 -125 0 -7 -5 -13 -11 -13 -5 0 -7
-4 -4 -10 3 -5 1 -10 -5 -10 -6 0 -9 -4 -6 -9 3 -5 -4 -21 -16 -37 -13 -15
-16 -24 -8 -19 12 7 13 6 3 -7 -7 -8 -10 -18 -6 -21 3 -4 1 -7 -6 -7 -7 0 -10
-4 -7 -9 3 -5 -1 -12 -10 -15 -8 -3 -13 -10 -9 -16 3 -5 1 -19 -5 -30 -6 -12
-13 -31 -15 -42 -3 -12 -10 -25 -17 -30 -10 -6 -9 -8 2 -8 13 0 13 -1 0 -10
-8 -5 -11 -10 -6 -10 5 0 3 -6 -3 -13 -6 -8 -8 -17 -4 -20 3 -4 2 -7 -4 -7 -5
0 -10 -6 -11 -12 -1 -15 -10 -53 -12 -53 -1 0 -3 -7 -5 -15 -2 -8 -7 -26 -10
-40 -3 -14 -7 -30 -9 -37 -1 -7 -5 -15 -8 -19 -4 -3 -4 -12 -1 -20 3 -8 1 -14
-5 -14 -7 0 -10 -126 -10 -380 0 -229 3 -378 9 -375 5 4 9 0 9 -9 0 -8 3 -22
7 -32 5 -13 3 -15 -8 -10 -8 4 -6 1 3 -7 10 -8 15 -17 11 -20 -3 -4 -2 -7 3
-7 5 0 10 -8 11 -18 2 -29 8 -47 16 -53 4 -3 9 -16 10 -27 1 -12 4 -22 8 -22
6 0 21 -34 23 -55 1 -5 6 -14 12 -20 6 -5 24 -35 40 -65 16 -30 32 -57 37 -58
4 -2 7 -10 7 -18 0 -8 3 -14 8 -14 4 0 18 -17 32 -37 14 -21 40 -53 57 -71 18
-18 33 -35 33 -38 0 -3 25 -29 55 -58 30 -29 55 -51 55 -49 0 5 26 -17 55 -47
14 -14 25 -21 25 -16 0 5 8 0 17 -11 10 -11 32 -27 48 -36 17 -8 40 -24 51
-36 12 -11 25 -17 28 -14 3 4 6 0 6 -7 0 -7 3 -11 6 -7 3 3 23 -5 44 -18 51
-32 141 -75 157 -75 7 0 13 -4 13 -10 0 -5 9 -10 20 -10 11 0 20 -5 20 -12 0
-6 3 -8 7 -5 3 4 15 -1 26 -10 11 -10 17 -12 13 -5 -4 6 -2 12 3 12 6 0 11 -4
11 -10 0 -5 7 -10 16 -10 8 0 25 -5 37 -12 12 -7 29 -13 37 -14 8 0 23 -4 32
-8 9 -4 24 -9 33 -10 9 -1 20 -7 23 -12 4 -5 18 -9 32 -9 14 1 28 -3 31 -7 3
-4 17 -9 32 -10 15 -1 27 -5 27 -9 0 -4 8 -6 17 -4 10 1 33 -4 51 -11 24 -10
31 -10 25 -1 -4 7 5 4 20 -6 15 -9 27 -13 27 -7 0 7 6 8 19 1 10 -6 21 -7 25
-4 3 3 6 2 6 -3 0 -5 15 -10 33 -11 58 -5 72 -8 79 -17 4 -6 13 -4 22 3 11 9
16 10 16 2 0 -6 16 -11 35 -11 21 0 35 -5 35 -12 0 -10 2 -10 9 0 9 15 17 15
44 1 12 -7 17 -6 17 3 0 9 3 10 8 2 7 -10 35 -14 124 -16 21 0 36 -3 34 -7 -3
-4 4 -7 15 -7 10 0 19 4 19 8 0 5 8 4 18 -1 13 -7 23 -6 30 1 8 8 12 8 12 1 0
-15 440 -15 459 1 11 8 13 8 7 -1 -9 -15 -1 -16 23 -4 10 6 23 6 31 1 8 -5 22
-4 33 2 15 7 22 7 28 -3 5 -8 9 -9 9 -4 0 6 19 10 43 10 23 0 45 4 49 9 4 6
13 4 22 -3 11 -9 16 -10 16 -2 0 6 5 11 11 11 5 0 7 -5 3 -12 -5 -7 -3 -8 7
-2 20 12 114 25 192 26 15 0 27 3 27 7 0 3 24 7 53 8 99 5 127 8 127 13 0 3 8
6 18 7 30 2 107 11 107 13 0 1 17 4 39 6 56 7 60 8 68 19 5 6 8 5 8 -3 0 -8 5
-10 13 -5 13 8 29 12 67 16 14 2 30 6 36 9 5 4 22 5 37 4 15 -2 27 1 27 6 0 6
7 8 15 4 8 -3 15 -2 15 2 0 4 12 7 28 7 15 -1 32 2 38 7 6 4 25 8 42 10 18 1
32 5 32 8 0 4 15 6 33 5 30 -1 41 3 91 27 14 7 16 6 10 -4 -6 -10 -5 -11 8 -1
8 7 18 10 21 6 4 -3 7 -2 7 4 0 5 10 9 23 8 12 -1 27 0 32 4 12 7 18 8 46 10
11 0 18 5 15 9 -3 4 8 7 25 6 16 -1 29 2 29 8 0 5 4 7 9 4 5 -4 12 0 14 6 4
10 6 10 6 0 1 -9 6 -10 20 -3 10 6 21 7 25 4 3 -3 6 -1 6 5 0 6 7 9 15 6 8 -4
15 -2 15 3 0 5 6 10 13 10 6 0 23 3 37 6 14 3 35 8 48 11 12 3 26 7 30 10 5 3
24 8 43 11 19 3 36 10 37 16 2 5 8 6 13 3 6 -3 15 -1 22 4 7 5 20 8 30 7 9 -2
17 0 17 5 0 7 36 17 78 22 6 1 12 6 12 11 0 5 8 6 17 3 9 -4 19 -2 22 3 4 5
18 11 31 13 14 2 35 9 48 16 12 7 22 10 22 6 0 -3 6 -1 14 5 8 6 18 11 22 10
5 -1 23 3 39 10 17 7 38 13 48 14 9 1 17 4 17 8 0 4 15 10 33 14 17 4 34 8 37
9 3 1 10 4 15 7 6 4 24 10 40 14 38 11 35 9 70 25 17 7 35 12 41 11 6 0 17 5
23 13 7 8 19 12 27 9 8 -3 14 -1 14 4 0 5 7 10 15 11 8 1 22 3 30 4 8 1 15 6
15 11 0 5 7 7 15 3 8 -3 15 -1 15 4 0 6 7 10 15 10 8 0 23 4 33 9 20 10 75 34
82 36 17 3 107 40 117 48 7 5 17 6 23 2 5 -3 10 -2 10 4 0 5 10 13 23 16 12 4
41 15 64 26 24 10 47 19 53 19 5 0 10 4 10 8 0 5 6 9 13 9 13 0 75 26 242 104
39 17 76 32 83 32 6 0 12 4 12 8 0 8 44 25 46 18 0 -2 8 4 18 14 10 9 21 15
26 12 5 -3 10 -2 12 2 4 10 120 67 131 65 4 -1 7 3 7 9 0 5 4 8 9 5 5 -3 25 5
45 19 20 13 36 22 36 18 0 -3 9 2 19 11 11 10 25 15 30 11 6 -3 11 -2 11 3 0
10 48 36 68 37 7 0 16 6 21 13 4 7 16 14 25 16 10 1 21 8 25 15 5 7 11 12 15
12 10 -1 80 33 87 43 4 5 12 5 19 1 8 -5 11 -4 7 2 -4 6 10 18 33 27 22 9 40
20 40 26 0 5 3 9 8 9 12 -3 72 25 72 33 0 4 7 8 15 8 8 0 15 5 15 12 0 6 3 8
6 5 4 -4 19 2 34 13 16 11 33 20 39 20 7 0 14 7 17 15 4 8 11 12 16 9 6 -4 13
-3 17 2 3 5 17 15 31 23 14 7 22 10 18 6 -9 -9 72 -95 90 -95 7 0 10 -4 7 -10
-3 -5 -1 -10 4 -10 6 0 20 -9 31 -20 11 -11 27 -20 36 -20 8 0 12 -5 9 -10 -3
-5 3 -10 14 -10 12 0 21 -5 21 -11 0 -5 5 -7 10 -4 6 3 10 1 10 -5 0 -6 5 -8
10 -5 6 3 10 3 10 -2 0 -17 124 -58 141 -47 7 4 9 3 6 -3 -4 -6 0 -13 8 -17 8
-3 15 0 15 7 0 8 3 9 8 1 6 -10 47 -14 159 -19 24 -1 46 -4 49 -8 4 -3 15 -2
25 4 11 5 19 6 19 2 0 -4 22 -8 49 -8 27 0 47 3 44 8 -2 4 0 7 6 7 5 0 13 -5
16 -11 5 -7 14 -4 26 7 19 17 20 17 13 -2 -6 -15 -5 -17 7 -8 8 7 34 12 59 13
25 0 56 3 70 7 24 5 48 10 100 18 14 3 25 5 25 6 0 1 10 3 22 6 44 8 48 9 53
15 3 4 19 9 35 10 17 2 32 6 35 9 7 7 73 32 88 33 6 0 12 4 12 9 0 5 5 6 10 3
6 -3 10 -1 10 6 0 7 3 10 6 6 4 -3 19 0 35 9 16 8 32 15 36 16 5 1 14 8 21 15
7 7 20 13 28 13 8 0 14 5 14 10 0 6 7 10 15 10 9 0 18 7 21 15 4 8 10 13 14
10 5 -3 15 2 23 10 9 8 20 15 25 15 6 0 13 7 16 16 3 8 10 12 16 9 5 -3 10 -2
10 3 0 5 11 15 25 22 13 7 22 17 19 22 -3 4 1 8 9 8 8 0 18 7 21 16 4 9 9 14
12 12 7 -7 74 62 74 75 0 6 3 8 6 5 6 -6 73 63 70 72 -2 9 28 38 35 34 3 -2
11 8 17 21 7 14 16 25 22 25 6 0 8 5 5 10 -3 6 -1 10 6 10 7 0 10 3 7 6 -4 3
1 14 10 24 25 26 53 68 51 76 0 4 3 10 8 13 11 8 28 37 55 94 13 26 27 47 31
47 5 0 5 5 2 10 -3 6 -1 10 4 10 6 0 10 3 9 8 -3 12 25 82 34 82 4 0 7 3 7 8
-3 15 14 71 20 68 4 -3 7 3 8 12 1 9 2 35 3 57 2 22 7 45 12 52 6 7 5 14 -2
18 -8 5 -8 11 1 21 7 9 8 14 1 14 -7 0 -8 10 -2 29 4 16 5 32 2 36 -4 4 -8 19
-8 33 -2 33 -11 96 -20 137 -3 17 -7 36 -7 43 0 6 -4 12 -9 12 -4 0 -8 9 -8
20 0 11 -4 20 -10 20 -5 0 -10 5 -10 11 0 19 -64 76 -82 73 -10 -1 -18 3 -18
9 0 8 -4 7 -12 -1 -7 -7 -20 -12 -30 -12 -10 0 -18 -4 -18 -9 0 -5 -11 -12
-25 -15 -14 -4 -24 -10 -22 -14 1 -4 -2 -8 -6 -9 -5 -1 -23 -21 -40 -44 -41
-55 -162 -179 -175 -179 -5 0 -12 -7 -16 -15 -3 -8 -12 -15 -21 -15 -8 0 -15
-4 -15 -10 0 -5 -14 -17 -32 -26 -18 -9 -38 -23 -46 -30 -7 -8 -18 -12 -23 -9
-5 4 -9 1 -9 -4 0 -6 -6 -11 -14 -11 -7 0 -19 -7 -26 -15 -7 -8 -21 -15 -31
-15 -11 0 -19 -4 -19 -9 0 -5 -15 -13 -32 -16 -18 -4 -35 -11 -38 -16 -3 -5
-17 -10 -30 -11 -14 -2 -28 -7 -31 -11 -3 -5 -12 -9 -20 -10 -8 -2 -20 -6 -26
-10 -7 -5 -13 -5 -13 -1 0 3 -7 1 -15 -6 -9 -7 -18 -11 -20 -8 -2 2 13 20 35
40 22 19 40 33 40 31 0 -2 11 8 25 23 14 15 25 24 25 20 0 -4 13 7 29 23 16
16 31 27 34 24 3 -2 10 5 17 16 6 12 15 21 19 21 5 0 26 16 45 35 20 19 41 35
47 35 5 0 7 5 4 10 -3 6 -1 10 5 10 6 0 24 14 40 30 16 17 32 30 35 30 3 0 30
25 60 55 30 30 66 62 80 71 14 9 22 20 19 25 -3 5 0 9 5 9 6 0 27 17 46 37 19
20 35 33 35 29 0 -5 9 3 20 16 24 31 90 98 90 91 0 -2 12 10 28 28 15 19 48
55 75 82 26 27 47 53 47 59 0 5 5 6 10 3 6 -3 10 -2 10 3 0 5 20 31 45 58 86
93 104 114 100 114 -2 0 12 15 30 34 19 18 35 38 35 45 0 7 5 9 10 6 6 -3 10
-1 10 5 0 10 26 44 95 126 6 7 19 24 30 38 11 15 26 33 33 41 6 7 12 16 12 20
0 4 6 12 13 19 6 8 19 24 27 36 8 12 21 28 28 36 6 7 12 17 12 23 0 6 5 11 10
11 6 0 10 5 10 11 0 6 6 17 13 24 28 33 37 45 32 45 -3 0 3 10 15 22 11 12 20
28 20 35 0 7 3 13 8 13 4 0 13 13 20 28 6 16 21 38 31 49 11 12 17 24 14 27
-4 3 -1 6 6 6 7 0 10 4 7 9 -3 5 0 14 8 20 7 6 21 29 31 51 10 22 22 40 27 40
5 0 6 5 3 10 -3 6 -1 10 4 10 6 0 10 3 10 8 -3 18 2 33 9 28 5 -3 9 1 10 9 1
8 3 22 4 30 1 8 7 16 15 19 7 3 13 15 13 26 0 11 9 29 20 40 12 12 18 25 15
30 -4 6 -1 10 5 10 6 0 9 4 5 9 -3 5 -1 12 5 16 6 4 8 11 5 16 -4 5 -1 9 4 9
6 0 10 3 9 8 -1 4 3 17 10 30 7 12 9 22 5 22 -4 0 -3 4 2 8 11 8 36 69 38 90
0 6 5 12 10 12 6 0 8 3 4 6 -3 3 5 35 19 70 13 35 21 64 18 64 -4 0 -1 6 5 13
6 8 8 17 4 20 -3 4 0 14 8 23 11 14 14 99 17 460 2 380 0 449 -13 488 -9 26
-13 52 -9 58 4 7 3 8 -4 4 -11 -6 -14 0 -11 20 0 4 -4 10 -11 14 -6 4 -12 17
-13 28 -1 12 -5 22 -10 22 -4 0 -6 4 -3 9 4 5 3 11 -1 13 -5 1 -23 32 -42 68
-18 36 -42 74 -52 86 -11 11 -19 24 -19 28 0 8 -14 27 -52 68 -16 16 -28 32
-28 35 0 3 -13 18 -30 33 -16 15 -30 33 -30 40 0 6 -3 9 -7 7 -10 -6 -53 39
-46 47 4 3 0 6 -8 6 -8 0 -32 18 -54 40 -22 21 -46 39 -52 40 -7 0 -13 5 -13
11 0 5 -4 8 -8 5 -5 -3 -15 4 -22 15 -8 10 -19 19 -24 19 -5 0 -15 8 -23 18
-9 10 -12 11 -7 2 4 -8 -3 -5 -15 8 -12 12 -28 22 -36 22 -8 0 -15 4 -15 8 0
5 -16 14 -35 22 -19 8 -35 17 -35 22 0 4 -9 8 -20 8 -11 0 -20 5 -20 11 0 5
-4 7 -10 4 -5 -3 -10 -2 -10 3 0 9 -47 27 -62 24 -5 -1 -8 2 -8 8 0 5 -7 10
-16 10 -8 0 -22 7 -30 15 -8 8 -22 11 -31 8 -11 -4 -14 -3 -9 5 4 8 2 10 -7 6
-8 -3 -21 1 -28 8 -8 7 -21 13 -29 13 -8 -1 -28 8 -44 19 -16 11 -26 15 -22 8
4 -7 2 -12 -3 -12 -6 0 -11 4 -11 8 0 5 -7 9 -15 10 -8 1 -22 3 -30 4 -8 1
-15 5 -15 9 0 4 -11 6 -25 4 -14 -1 -28 2 -32 8 -4 6 -1 7 7 2 8 -5 11 -4 7 3
-4 5 -16 8 -27 5 -11 -3 -27 0 -35 7 -8 7 -24 10 -35 7 -11 -3 -20 -1 -20 5 0
6 -6 8 -14 5 -8 -3 -17 -3 -20 1 -8 7 -32 12 -63 14 -13 0 -23 4 -23 7 0 4
-12 7 -27 8 -50 1 -54 3 -47 16 6 9 5 9 -8 0 -8 -7 -17 -11 -20 -8 -5 6 -85
18 -111 17 -9 -1 -15 3 -12 8 3 5 -8 5 -25 0 -16 -5 -30 -5 -30 -1 0 9 -1 9
-82 12 -32 2 -58 7 -58 12 0 5 -7 4 -16 -4 -11 -9 -18 -9 -22 -2 -10 15 -665
17 -694 2 -15 -8 -19 -8 -14 0 8 12 -6 15 -18 4z m379 -348 c11 0 23 5 27 10
5 7 8 7 8 0 0 -6 34 -11 83 -12 174 -2 198 -3 193 -11 -3 -5 1 -9 9 -9 8 0 12
4 9 8 -3 5 9 7 26 6 16 -1 30 -5 30 -8 0 -8 32 -5 47 4 6 4 13 3 15 -2 1 -6
24 -11 51 -12 26 -2 47 -7 47 -12 0 -5 6 -4 14 2 10 8 16 9 21 1 3 -6 10 -8
15 -5 5 3 12 0 16 -6 4 -8 9 -7 15 2 6 10 11 11 17 3 4 -6 14 -11 22 -11 8 0
26 -3 39 -7 18 -6 22 -5 15 5 -6 11 -4 11 10 0 9 -8 27 -16 39 -17 12 -2 45
-8 72 -14 28 -6 58 -12 68 -13 9 -1 17 -5 17 -9 0 -4 3 -7 8 -6 14 3 82 -14
87 -23 3 -4 12 -6 19 -3 8 3 17 0 21 -5 3 -6 11 -9 16 -6 5 4 9 2 9 -3 0 -5 7
-9 15 -10 8 -1 22 -3 30 -4 8 -1 15 -4 15 -7 0 -4 20 -13 45 -20 25 -7 45 -17
45 -22 0 -5 7 -6 15 -3 8 4 15 1 15 -6 0 -6 5 -8 10 -5 6 3 10 1 10 -5 0 -6 5
-8 10 -5 6 3 10 1 10 -5 0 -7 7 -10 15 -6 8 3 15 1 15 -4 0 -6 6 -10 14 -10 8
0 16 -7 19 -15 4 -8 15 -12 27 -10 11 2 18 0 15 -6 -4 -5 0 -9 8 -9 7 0 23 -9
35 -20 12 -11 26 -20 32 -20 5 0 10 -5 10 -11 0 -5 4 -8 9 -5 5 3 17 -5 27
-19 10 -13 21 -22 25 -19 4 2 51 -40 104 -94 119 -119 125 -126 125 -139 0 -6
6 -16 14 -22 8 -7 27 -38 43 -69 15 -31 31 -59 36 -60 4 -2 5 -8 1 -13 -3 -5
0 -9 5 -9 6 0 10 -3 10 -7 -3 -15 14 -73 21 -73 7 0 9 -9 12 -55 1 -14 5 -25
8 -25 4 0 7 -6 8 -12 4 -50 9 -75 16 -86 4 -7 3 -19 -3 -26 -7 -9 -6 -19 5
-34 12 -17 12 -22 2 -22 -9 0 -9 -3 2 -10 8 -5 10 -10 4 -10 -8 0 -9 -11 -3
-37 4 -21 5 -40 1 -43 -4 -3 -7 -23 -6 -45 0 -22 -4 -46 -10 -54 -9 -12 -8
-13 3 -7 10 7 11 3 6 -15 -9 -26 -14 -63 -19 -122 -1 -22 -7 -42 -12 -45 -5
-4 -9 -17 -8 -29 1 -13 -2 -23 -7 -23 -4 0 -6 -9 -4 -20 2 -11 0 -20 -5 -20
-5 0 -7 -7 -4 -15 4 -9 0 -15 -7 -15 -11 0 -11 -3 1 -10 10 -6 11 -10 3 -10
-7 0 -13 -9 -13 -19 0 -11 -4 -22 -9 -25 -5 -4 -8 -14 -7 -24 2 -9 -1 -20 -6
-23 -5 -3 -11 -12 -12 -20 -8 -40 -19 -69 -26 -69 -5 0 -7 -11 -4 -24 3 -16
-2 -28 -11 -34 -9 -4 -17 -18 -18 -29 0 -12 -5 -19 -9 -17 -4 3 -8 -3 -8 -13
0 -10 -7 -27 -15 -37 -8 -10 -12 -23 -9 -27 3 -5 0 -9 -6 -9 -7 0 -10 -7 -6
-15 3 -8 1 -15 -4 -15 -6 0 -22 -26 -36 -57 -15 -32 -31 -61 -36 -64 -5 -3
-10 -15 -11 -27 0 -11 -4 -20 -7 -19 -3 1 -6 -2 -7 -7 -1 -5 -5 -12 -10 -15
-4 -3 -17 -23 -28 -43 -11 -21 -23 -38 -28 -38 -4 0 -5 -4 -2 -10 3 -5 1 -10
-4 -10 -6 0 -11 -7 -11 -15 0 -7 -8 -19 -17 -24 -10 -6 -14 -11 -10 -11 9 0
-31 -60 -48 -72 -5 -4 -6 -8 -1 -8 6 0 2 -6 -7 -12 -9 -7 -17 -19 -19 -27 -2
-8 -15 -27 -30 -43 -16 -16 -28 -36 -28 -44 0 -8 -4 -13 -9 -9 -5 3 -12 -4
-16 -15 -3 -11 -11 -20 -16 -20 -5 0 -9 -6 -9 -13 0 -7 -8 -20 -17 -28 -10 -9
-25 -26 -33 -39 -8 -12 -26 -35 -40 -51 -14 -16 -34 -40 -45 -54 -40 -51 -171
-200 -197 -224 -10 -8 -18 -21 -18 -28 0 -6 -5 -15 -12 -19 -7 -5 -8 -2 -3 7
4 8 -8 -4 -27 -26 -72 -81 -166 -173 -172 -168 -3 4 -6 1 -6 -6 0 -11 -59 -76
-71 -76 -3 0 -20 -17 -38 -37 -18 -21 -40 -38 -49 -38 -8 0 -13 -3 -9 -6 5 -6
-59 -74 -70 -74 -3 0 -25 -20 -49 -45 -24 -24 -44 -42 -44 -40 0 3 -8 -3 -19
-12 -10 -10 -40 -36 -66 -58 -26 -22 -57 -49 -69 -61 -11 -11 -39 -33 -61 -50
-21 -16 -46 -36 -55 -44 -9 -8 -31 -26 -50 -40 -18 -14 -39 -31 -46 -37 -7 -7
-15 -13 -19 -13 -3 0 -17 -10 -31 -22 -13 -13 -34 -31 -44 -40 -11 -10 -24
-18 -30 -18 -5 0 -10 -4 -10 -8 0 -4 -12 -15 -27 -24 -32 -19 -67 -45 -93 -70
-10 -9 -21 -14 -24 -10 -3 3 -6 0 -6 -6 0 -7 -6 -12 -14 -12 -8 0 -16 -7 -20
-15 -3 -8 -12 -15 -20 -15 -8 0 -16 -3 -18 -7 -5 -13 -76 -63 -87 -63 -6 0
-11 -6 -11 -12 -1 -8 -7 -5 -15 6 -8 10 -12 23 -9 28 3 5 2 7 -3 6 -4 -2 -8
-1 -8 2 0 3 -10 19 -23 37 -12 17 -22 43 -22 57 0 14 -4 26 -8 26 -4 0 -9 14
-10 32 -2 18 -8 36 -15 40 -7 4 -7 8 -2 8 6 0 11 9 11 20 0 11 -3 20 -7 20 -9
0 -6 21 4 38 5 7 3 12 -4 12 -8 0 -8 4 1 15 7 8 8 15 3 15 -5 0 -9 9 -9 20 0
11 4 20 9 20 4 0 4 7 -1 16 -11 20 -4 56 9 48 5 -3 9 0 9 5 0 6 -5 11 -11 11
-6 0 -7 5 -2 13 4 6 9 21 10 32 5 43 12 71 22 97 5 15 8 36 6 48 -2 11 0 18 6
15 9 -6 10 -5 14 31 1 12 6 28 11 35 5 8 9 17 10 22 1 4 2 8 3 10 2 1 5 13 7
27 2 13 8 27 12 30 4 3 9 14 10 25 2 11 8 23 14 26 5 3 9 9 9 13 -3 20 0 26
11 20 7 -4 8 -3 4 4 -4 6 2 29 13 50 11 22 17 42 14 46 -4 3 -1 6 5 6 10 0 25
30 27 55 0 6 7 9 14 7 8 -2 11 3 8 13 -4 8 -3 15 1 15 4 0 12 10 18 23 39 77
49 94 67 115 11 12 17 22 13 22 -4 0 3 13 16 29 12 16 34 46 48 66 51 74 93
125 101 125 5 0 9 5 9 12 0 7 10 22 23 33 12 11 39 39 60 63 20 23 37 40 37
37 0 -2 21 17 47 43 26 26 51 46 55 44 5 -1 8 3 8 8 0 6 11 15 25 22 13 6 22
15 19 19 -3 5 2 9 10 9 9 0 16 5 16 10 0 6 4 10 10 10 5 0 30 16 56 35 25 19
52 35 60 35 8 0 14 4 14 9 0 5 16 16 35 25 19 9 35 21 35 26 0 5 7 7 15 4 8
-4 15 -1 15 7 0 7 3 10 6 6 4 -3 13 1 21 9 8 8 19 12 24 9 5 -4 9 -1 9 6 0 7
3 9 6 6 4 -4 19 2 35 13 20 15 29 17 32 8 3 -8 6 -5 6 6 1 11 6 16 15 13 7 -3
18 -1 23 4 5 5 18 11 29 13 10 2 33 10 49 17 17 6 36 13 44 15 8 2 26 6 40 9
14 4 26 6 26 4 0 -1 11 4 25 11 23 12 77 21 143 24 15 1 27 3 27 6 0 3 17 6
38 8 20 1 44 3 52 6 8 2 30 7 48 11 18 4 35 12 38 16 3 5 10 7 15 4 5 -4 9 -1
9 4 0 6 5 11 10 11 6 0 29 18 50 39 35 35 46 56 41 84 0 4 3 7 7 7 5 0 9 6 9
13 1 6 4 28 8 47 3 19 7 42 8 50 2 9 7 22 12 29 5 10 4 12 -3 7 -16 -9 -15 7
0 22 9 9 9 12 1 12 -8 0 -9 9 -3 30 6 21 5 30 -3 31 -8 0 -8 2 1 6 10 4 10 8
1 19 -9 11 -9 14 0 14 7 0 9 5 6 10 -4 6 -2 17 5 25 7 9 8 15 0 20 -5 3 -10
11 -10 16 0 6 6 7 13 3 9 -6 9 -4 -1 8 -9 11 -10 18 -2 23 7 4 7 12 0 26 -8
14 -7 19 2 19 10 0 10 2 1 8 -7 4 -11 18 -8 30 2 13 -1 22 -8 22 -8 0 -8 3 2
9 10 6 10 13 2 28 -5 11 -7 23 -4 27 3 3 1 6 -5 6 -7 0 -12 7 -12 16 0 18 -13
33 -52 58 -18 12 -28 14 -28 7 0 -7 -5 -9 -12 -5 -6 4 -28 7 -47 7 -20 0 -39
5 -43 11 -5 7 -8 6 -8 -3 0 -11 -3 -11 -15 -1 -8 7 -15 8 -15 3 0 -5 -9 -9
-20 -10 -12 -1 -18 3 -14 9 4 6 -3 5 -16 -2 -12 -6 -24 -9 -27 -6 -3 3 -14 1
-24 -5 -11 -5 -19 -6 -19 -2 0 4 -20 8 -45 8 -25 0 -45 -4 -45 -10 0 -5 -5 -3
-10 5 -9 13 -10 13 -10 0 0 -13 -1 -13 -10 0 -6 9 -10 11 -10 3 0 -7 -7 -10
-17 -6 -12 5 -14 3 -8 -7 6 -10 4 -11 -6 -4 -18 11 -39 14 -39 6 0 -7 -9 -8
-118 -12 -29 -2 -55 -7 -58 -11 -3 -5 -10 -6 -16 -3 -12 7 -76 15 -143 17 -22
1 -43 6 -47 12 -5 6 -8 5 -8 -4 0 -10 -3 -11 -14 -2 -10 8 -16 9 -21 1 -3 -6
-12 -7 -18 -3 -7 4 -41 9 -77 10 -36 2 -73 5 -82 7 -9 2 -19 -1 -22 -8 -2 -6
-5 -2 -5 8 -1 20 -1 20 -16 0 -8 -10 -15 -14 -15 -9 0 12 -240 14 -240 1 0 -5
-6 -3 -13 3 -8 6 -17 8 -20 5 -3 -3 -37 -7 -74 -8 -38 -1 -73 -5 -79 -8 -5 -4
-16 -3 -24 2 -8 5 -22 4 -33 -2 -15 -7 -22 -7 -28 3 -7 11 -9 11 -9 1 0 -7 -4
-10 -10 -7 -5 3 -10 0 -10 -7 0 -8 -3 -9 -8 -3 -8 11 -52 15 -52 5 0 -4 -10
-6 -22 -5 -13 1 -27 0 -32 -3 -5 -2 -40 -6 -79 -9 -39 -2 -76 -8 -84 -14 -9
-9 -13 -8 -13 0 0 8 -6 9 -17 3 -10 -4 -28 -7 -40 -6 -13 0 -23 -4 -23 -10 0
-6 -5 -4 -10 4 -5 8 -10 10 -10 5 0 -6 -17 -12 -37 -13 -20 -2 -44 -8 -52 -15
-12 -9 -13 -9 -7 1 4 6 2 12 -3 12 -6 0 -11 -4 -11 -10 0 -5 -10 -8 -22 -6
-13 2 -29 -2 -37 -8 -12 -9 -13 -8 -6 4 7 12 6 13 -6 4 -8 -6 -30 -14 -49 -18
-50 -9 -71 -13 -105 -21 -16 -4 -38 -7 -47 -8 -10 -1 -18 -4 -18 -7 0 -3 -9
-7 -20 -8 -11 -1 -29 -3 -40 -4 -11 -1 -20 -6 -20 -11 0 -4 -4 -6 -9 -2 -5 3
-12 1 -16 -5 -4 -6 -10 -8 -15 -5 -5 3 -14 -1 -22 -8 -7 -7 -20 -12 -28 -12
-8 1 -31 -7 -50 -17 -19 -10 -43 -18 -53 -18 -10 0 -15 -4 -12 -10 5 -9 -15
-15 -37 -11 -5 0 -8 -3 -8 -8 0 -5 -20 -18 -45 -30 -25 -12 -45 -26 -45 -32 0
-5 -4 -7 -10 -4 -5 3 -10 1 -10 -4 0 -6 -3 -10 -7 -9 -5 2 -17 -5 -28 -15 -11
-9 -22 -17 -25 -16 -7 2 -150 -140 -150 -149 0 -4 -9 -15 -20 -25 -12 -10 -18
-23 -14 -29 4 -6 3 -8 -4 -4 -6 3 -13 -3 -17 -14 -3 -11 -11 -20 -16 -20 -6 0
-7 -4 -4 -10 3 -5 2 -10 -2 -10 -9 0 -48 -80 -45 -92 1 -5 -3 -8 -9 -8 -5 0
-7 -4 -4 -10 3 -5 1 -10 -5 -10 -6 0 -9 -4 -5 -9 3 -5 1 -12 -5 -16 -6 -4 -8
-11 -5 -16 4 -5 2 -9 -4 -9 -5 0 -8 -9 -6 -20 2 -11 0 -20 -4 -20 -4 0 -8 -7
-9 -15 -1 -8 -3 -22 -4 -30 -1 -8 -4 -15 -8 -15 -3 0 -6 -10 -7 -22 -1 -71 -4
-89 -12 -83 -6 3 -7 -6 -2 -23 5 -17 5 -36 -1 -47 -6 -9 -6 -20 -2 -24 12 -8
16 -31 6 -31 -9 0 -6 -69 3 -78 2 -3 0 -11 -6 -19 -7 -8 -8 -13 -1 -13 5 0 12
-11 14 -25 3 -13 1 -22 -4 -19 -5 3 -6 -6 -2 -22 4 -15 7 -44 8 -63 0 -20 5
-39 11 -43 6 -5 5 -8 -4 -8 -11 0 -11 -3 -1 -15 10 -12 10 -15 -1 -15 -9 0
-10 -3 -4 -8 10 -7 17 -48 19 -99 0 -13 2 -23 6 -23 3 0 6 -16 7 -36 1 -20 6
-41 11 -47 5 -7 8 -22 7 -34 -1 -13 2 -23 7 -23 5 0 7 -4 3 -9 -3 -5 -1 -12 5
-16 5 -3 10 -13 10 -22 0 -20 50 -125 65 -135 5 -4 7 -8 2 -8 -18 0 92 -110
110 -110 7 0 13 -4 13 -10 0 -15 35 -7 54 13 10 9 22 17 27 17 6 0 7 5 4 10
-3 6 -1 10 4 10 6 0 11 6 11 14 0 8 5 16 10 18 6 2 12 13 14 25 3 12 9 30 15
41 6 11 7 22 4 26 -3 3 -2 6 4 6 6 0 13 18 17 40 3 22 12 40 19 41 9 0 9 2 -1
6 -6 2 -10 9 -6 14 8 13 27 113 27 147 0 6 4 12 9 12 4 0 7 3 6 8 -4 10 37 62
49 62 5 0 16 8 25 18 26 27 46 42 58 42 5 0 10 5 10 10 0 6 5 10 10 10 6 0 20
9 32 20 12 10 25 17 30 14 4 -3 8 0 8 5 0 6 6 11 13 11 7 0 22 8 33 18 11 9
26 18 34 20 8 2 17 8 18 13 2 5 8 7 13 3 5 -3 9 0 9 6 0 6 5 8 10 5 6 -3 10
-1 10 4 0 6 3 10 8 10 24 -4 42 2 36 13 -5 8 -2 9 10 5 10 -4 19 -1 22 8 3 7
11 12 19 9 7 -3 19 1 26 9 8 7 16 14 19 14 35 7 60 17 60 24 0 5 7 6 15 3 8
-4 15 -1 15 6 0 6 4 9 9 5 5 -3 12 -1 16 5 4 6 11 8 16 5 5 -4 9 -2 9 3 0 5 7
9 15 10 8 1 22 3 30 4 8 1 15 5 15 10 0 4 3 7 8 6 4 -1 20 4 36 11 16 6 31 9
34 7 2 -3 11 1 18 9 8 8 23 12 34 10 11 -2 20 0 20 6 0 5 11 9 25 9 14 0 25 5
25 11 0 6 6 9 14 6 7 -3 18 -1 22 3 5 5 18 11 29 13 71 13 94 20 91 26 -3 4 8
6 25 5 16 -1 29 2 29 6 0 5 9 7 20 5 11 -2 20 1 20 7 0 6 7 7 18 3 9 -4 25 -7
34 -7 20 1 34 -31 16 -37 -17 -6 -234 -226 -278 -281 -19 -25 -38 -46 -42 -48
-4 -2 -8 -10 -8 -18 0 -8 -4 -14 -8 -14 -5 0 -24 -24 -43 -52 -18 -29 -39 -60
-46 -68 -7 -8 -14 -19 -15 -25 -1 -5 -6 -15 -12 -22 -27 -31 -34 -41 -40 -61
-4 -13 -12 -19 -18 -16 -6 4 -8 2 -4 -4 3 -6 -1 -17 -10 -26 -8 -9 -13 -19
-11 -23 6 -10 -19 -34 -26 -26 -3 2 -4 -3 -3 -14 2 -10 -2 -21 -8 -25 -6 -4
-11 -11 -12 -15 -1 -14 -17 -48 -24 -53 -9 -6 -60 -117 -60 -130 0 -6 -5 -10
-11 -10 -5 0 -7 -5 -4 -10 3 -6 -1 -13 -9 -16 -9 -3 -14 -10 -11 -14 2 -4 -4
-25 -14 -46 -11 -21 -17 -42 -14 -46 2 -5 -1 -8 -8 -8 -7 0 -9 -3 -6 -7 4 -3
-1 -15 -10 -26 -10 -11 -12 -17 -5 -13 6 4 3 -9 -9 -28 -11 -19 -18 -40 -15
-45 3 -5 -1 -11 -9 -15 -9 -3 -12 -12 -8 -22 3 -9 1 -19 -6 -23 -6 -4 -14 -21
-17 -37 -3 -16 -8 -31 -12 -34 -4 -3 -8 -16 -10 -30 -1 -13 -8 -28 -15 -32 -9
-6 -9 -8 0 -8 8 0 8 -8 -2 -27 -8 -16 -16 -40 -19 -55 -3 -16 -9 -40 -12 -55
-4 -16 -7 -36 -8 -45 0 -10 -5 -18 -11 -18 -5 0 -3 -5 5 -10 9 -6 10 -10 3
-10 -6 0 -12 -8 -12 -17 0 -10 -3 -36 -6 -58 -3 -22 -6 -48 -6 -57 0 -10 -4
-18 -8 -18 -4 0 -8 -7 -8 -15 0 -8 5 -15 10 -15 5 0 5 -5 -1 -13 -7 -8 -7 -18
-2 -27 5 -9 5 -19 -2 -27 -6 -7 -8 -13 -4 -13 3 0 1 -12 -4 -26 -7 -16 -7 -23
0 -19 12 8 13 -5 1 -24 -6 -9 -6 -22 0 -33 7 -13 6 -18 -3 -18 -8 0 -9 -3 -3
-8 14 -10 15 -42 1 -42 -6 0 -4 -5 4 -10 11 -7 11 -10 2 -10 -7 0 -10 -5 -7
-10 4 -6 11 -7 17 -4 7 4 7 0 0 -12 -10 -20 -10 -53 0 -70 4 -5 5 -22 4 -37
-2 -15 0 -27 4 -27 5 0 7 -8 6 -17 -2 -9 2 -35 9 -58 15 -54 14 -66 -10 -79
-11 -6 -23 -15 -27 -21 -5 -7 -8 -7 -8 0 0 6 -5 2 -11 -8 -6 -9 -14 -15 -20
-12 -5 4 -9 1 -9 -5 0 -6 -4 -9 -9 -6 -5 3 -20 -3 -34 -14 -14 -11 -30 -20
-35 -20 -5 0 -15 -7 -22 -15 -7 -8 -16 -13 -20 -10 -4 2 -15 -4 -25 -15 -10
-11 -22 -17 -26 -14 -5 3 -9 0 -9 -7 0 -7 -3 -9 -6 -6 -4 4 -19 -2 -33 -12
-14 -10 -36 -22 -48 -25 -13 -4 -23 -12 -23 -17 0 -5 -9 -9 -19 -9 -11 0 -21
-5 -23 -10 -2 -6 -13 -12 -25 -13 -12 0 -21 -6 -20 -11 1 -6 -4 -11 -10 -12
-7 -1 -16 -3 -20 -4 -5 -1 -11 -2 -15 -2 -3 1 -12 -5 -18 -13 -7 -8 -19 -15
-26 -15 -8 0 -14 -5 -14 -12 0 -6 -3 -8 -7 -5 -3 4 -15 -1 -26 -10 -10 -10
-22 -17 -26 -16 -9 3 -95 -40 -103 -52 -4 -5 -8 -6 -8 -1 0 5 -9 1 -21 -10
-12 -10 -23 -18 -25 -16 -12 7 -24 0 -18 -10 4 -7 3 -8 -5 -4 -6 4 -18 2 -26
-4 -8 -7 -15 -9 -15 -4 0 5 -4 4 -8 -3 -4 -6 -14 -13 -22 -15 -8 -2 -21 -9
-29 -16 -7 -7 -20 -11 -27 -8 -8 3 -14 1 -14 -4 0 -6 -7 -10 -15 -10 -8 0 -15
-4 -15 -10 0 -5 -3 -9 -7 -8 -5 1 -25 -6 -47 -15 -21 -9 -42 -17 -47 -17 -5 0
-9 -3 -9 -7 0 -5 -11 -13 -25 -20 -14 -6 -23 -7 -20 -2 8 11 -58 -23 -67 -36
-4 -5 -8 -6 -8 -1 0 5 -8 2 -17 -5 -14 -12 -16 -12 -9 1 4 9 1 8 -7 -2 -8 -10
-21 -18 -28 -18 -8 0 -25 -7 -37 -16 -12 -8 -22 -13 -22 -10 0 4 -17 -3 -37
-14 -21 -11 -43 -20 -50 -20 -7 0 -13 -5 -13 -11 0 -5 -4 -7 -10 -4 -5 3 -20
0 -32 -7 -13 -7 -25 -13 -28 -13 -3 -1 -18 -7 -35 -14 -16 -7 -32 -13 -35 -13
-3 0 -14 -5 -25 -11 -11 -6 -23 -10 -27 -9 -5 1 -8 -2 -8 -7 0 -6 -9 -8 -20
-6 -11 2 -20 -1 -20 -6 0 -6 -4 -7 -10 -4 -5 3 -10 1 -10 -6 0 -7 -3 -9 -7 -6
-3 4 -12 2 -20 -4 -7 -6 -13 -8 -13 -5 0 4 -7 0 -16 -9 -12 -11 -20 -13 -27
-6 -7 7 -14 6 -21 -4 -6 -8 -20 -16 -31 -18 -11 -2 -30 -8 -42 -15 -12 -7 -31
-12 -42 -12 -12 0 -21 -4 -21 -9 0 -5 -15 -12 -32 -16 -18 -4 -35 -8 -38 -9
-3 -1 -9 -4 -15 -7 -5 -4 -23 -10 -40 -14 -40 -11 -44 -12 -52 -15 -5 -1 -11
-2 -15 -1 -5 0 -8 -4 -8 -9 0 -6 -6 -10 -12 -9 -25 3 -39 -1 -34 -10 4 -5 -2
-8 -11 -7 -10 2 -27 0 -38 -5 -52 -20 -62 -23 -83 -25 -13 -2 -29 -8 -36 -13
-7 -6 -16 -8 -19 -4 -4 3 -7 1 -7 -6 0 -7 -5 -9 -10 -6 -6 4 -17 1 -25 -5 -8
-7 -15 -9 -15 -5 0 4 -7 2 -15 -5 -8 -7 -15 -9 -15 -5 0 4 -8 1 -17 -6 -11 -9
-14 -10 -9 -2 5 9 2 11 -8 7 -9 -3 -16 -10 -16 -14 0 -5 -8 -7 -17 -6 -10 2
-33 -3 -51 -11 -18 -7 -37 -11 -42 -8 -6 4 -10 1 -10 -5 0 -7 -6 -10 -14 -7
-8 3 -16 2 -18 -3 -2 -6 -15 -11 -30 -12 -16 -1 -28 -5 -28 -9 0 -3 -13 -5
-30 -4 -16 1 -30 -1 -30 -5 0 -6 -91 -32 -155 -44 -5 -1 -15 -5 -22 -9 -6 -4
-15 -2 -19 4 -5 9 -10 8 -18 -2 -12 -15 -27 -21 -66 -23 -14 -1 -30 -5 -36 -9
-7 -4 -28 -8 -48 -9 -20 -2 -36 -7 -36 -12 0 -4 -9 -6 -19 -3 -11 3 -28 0 -38
-7 -10 -6 -30 -11 -45 -10 -16 0 -28 -2 -28 -6 0 -5 -10 -8 -22 -8 -13 0 -41
-3 -63 -7 -22 -4 -49 -9 -60 -10 -11 -2 -21 -4 -22 -5 -4 -4 -14 -5 -78 -15
-58 -8 -66 -10 -82 -15 -5 -1 -20 -1 -35 0 -16 1 -28 -2 -28 -7 0 -4 -12 -9
-27 -9 -71 -4 -113 -10 -113 -15 0 -3 -7 -6 -15 -6 -8 0 -15 5 -15 10 0 6 -5
6 -12 0 -7 -6 -21 -9 -30 -8 -10 2 -18 0 -18 -4 0 -4 -12 -6 -28 -5 -15 1 -36
-2 -48 -7 -11 -4 -27 -3 -34 1 -8 5 -19 5 -25 1 -5 -5 -17 -9 -25 -9 -118 -7
-148 -10 -158 -16 -7 -4 -12 -2 -12 4 0 6 -4 9 -9 6 -19 -12 -81 -14 -81 -3 0
9 -3 8 -8 -1 -5 -7 -22 -10 -40 -8 -18 2 -32 0 -32 -4 0 -3 -22 -4 -50 0 -27
4 -50 4 -50 0 0 -7 -228 -3 -247 5 -7 2 -13 -1 -13 -7 0 -7 -5 -6 -15 2 -12
10 -15 10 -15 -1 0 -9 -3 -10 -8 -3 -4 5 -26 10 -49 9 -24 0 -43 3 -43 8 0 4
-6 5 -12 0 -18 -10 -38 -13 -38 -4 0 4 -19 7 -42 6 -24 -1 -51 2 -60 7 -13 6
-18 5 -18 -4 0 -8 -3 -9 -8 -3 -4 6 -14 10 -22 10 -8 -1 -21 3 -27 8 -9 6 -13
5 -13 -3 0 -8 -4 -9 -12 -3 -13 10 -36 13 -98 16 -19 1 -38 5 -41 10 -3 4 -25
9 -50 11 -24 2 -45 5 -46 6 -2 1 -7 4 -13 5 -5 1 -13 4 -17 5 -5 1 -18 1 -30
0 -13 -1 -23 3 -23 8 0 5 -15 12 -32 15 -51 8 -90 17 -107 26 -9 5 -22 6 -28
4 -7 -3 -13 0 -13 6 0 6 -3 10 -7 10 -5 -1 -10 -1 -13 1 -3 1 -16 4 -30 6 -13
2 -27 8 -30 12 -5 7 -27 14 -47 15 -7 0 -13 4 -13 9 0 4 -9 8 -19 8 -11 0 -23
5 -26 10 -3 6 -15 10 -26 10 -10 0 -19 5 -19 11 0 6 -7 8 -16 5 -8 -3 -12 -2
-9 4 3 6 3 10 -2 11 -32 3 -49 10 -60 25 -7 10 -13 15 -13 11 0 -4 -10 -2 -22
5 -13 7 -27 11 -31 10 -5 -1 -6 1 -3 6 3 5 -12 17 -34 27 -22 10 -40 22 -40
27 0 5 -8 12 -17 15 -20 8 -43 25 -90 71 -19 17 -39 32 -44 32 -5 0 -9 3 -9 8
0 4 -18 25 -40 47 -21 22 -39 45 -40 50 0 6 -9 16 -20 23 -11 7 -20 17 -20 23
0 5 -9 19 -20 31 -10 12 -17 25 -14 30 3 4 0 8 -6 8 -6 0 -9 4 -6 9 3 5 -1 12
-10 15 -8 3 -12 10 -9 16 3 5 1 10 -4 10 -6 0 -11 7 -11 15 0 8 -9 29 -19 47
-11 17 -18 35 -15 40 3 4 0 8 -5 8 -6 0 -11 5 -11 11 0 5 6 7 13 3 13 -9 -11
26 -28 38 -6 5 -5 8 3 8 9 0 10 5 3 19 -6 10 -7 21 -4 25 3 3 1 6 -6 6 -7 0
-11 6 -8 14 3 7 -1 25 -8 40 -8 15 -10 24 -5 21 5 -3 8 4 7 15 -1 11 -4 20 -8
20 -3 0 -5 32 -5 70 1 39 -3 70 -7 70 -5 0 -5 5 -1 12 4 7 9 39 10 72 2 34 5
75 8 91 3 17 6 45 8 63 1 17 5 32 9 32 4 0 6 14 5 30 -1 17 1 30 4 30 4 0 7 6
8 13 3 42 7 57 15 57 5 0 7 7 3 15 -3 8 -2 15 3 15 5 0 9 6 8 13 -1 31 4 48
12 43 5 -4 7 3 4 14 -3 11 -1 20 5 20 6 0 9 7 8 17 -2 9 5 32 15 52 9 20 15
39 12 43 -2 5 1 8 7 8 6 0 9 4 5 9 -3 5 -1 12 5 16 5 3 10 15 10 26 0 10 5 19
10 19 6 0 10 5 10 12 0 6 13 38 29 72 16 34 29 64 30 69 0 4 12 24 25 44 14
20 23 40 21 44 -3 4 2 9 10 13 8 3 15 15 15 26 0 11 4 20 10 20 5 0 12 11 16
25 3 14 10 25 15 25 5 0 9 5 9 11 0 5 18 37 40 70 23 32 37 59 33 59 -4 0 0 5
10 11 9 6 15 14 12 19 -3 4 2 11 11 14 8 3 12 10 9 16 -3 5 -2 10 3 10 6 0 24
23 42 50 18 27 36 50 42 50 5 0 7 4 4 9 -3 4 3 16 14 26 11 10 20 23 20 29 0
6 9 17 20 24 12 7 18 17 15 21 -3 5 -1 11 4 13 13 4 111 128 111 140 0 5 5 6
10 3 6 -3 10 -2 10 3 0 9 40 58 97 119 12 12 20 23 17 23 -3 0 24 29 60 65 36
36 63 65 61 65 -2 0 19 23 46 50 27 28 51 50 52 50 2 0 3 -11 3 -25 0 -14 -4
-25 -8 -25 -4 0 -8 -5 -8 -11 0 -5 6 -7 13 -3 8 5 8 2 -2 -9 -7 -9 -10 -17 -5
-17 5 0 2 -5 -6 -10 -10 -6 -11 -10 -3 -10 9 0 10 -7 3 -24 -5 -13 -6 -27 -2
-31 3 -3 0 -10 -8 -15 -12 -8 -12 -10 -1 -10 10 0 11 -3 2 -14 -8 -10 -9 -16
-2 -21 7 -4 6 -16 -5 -37 -10 -20 -11 -28 -3 -23 8 6 10 4 3 -6 -10 -17 -12
-29 -18 -94 -2 -27 -5 -50 -6 -50 -4 0 -11 -41 -11 -60 0 -10 -5 -25 -11 -32
-7 -9 -7 -13 1 -13 9 0 9 -5 1 -20 -6 -11 -11 -35 -12 -55 -1 -19 -4 -32 -8
-30 -3 2 -6 -13 -6 -34 0 -20 -4 -42 -8 -49 -9 -15 -16 -51 -19 -99 -1 -18 -6
-33 -10 -33 -5 0 -7 -7 -4 -15 4 -8 2 -17 -3 -20 -5 -3 -7 -14 -5 -25 2 -11 1
-20 -3 -20 -4 0 -8 -8 -9 -17 -4 -50 -7 -69 -16 -80 -6 -9 -5 -13 3 -13 9 0
10 -3 1 -13 -10 -13 -22 -66 -25 -114 0 -13 -4 -23 -8 -23 -3 0 -5 -8 -3 -17
1 -10 -1 -22 -5 -28 -4 -5 -8 -17 -8 -25 0 -8 -4 -31 -7 -50 -4 -19 -7 -43 -7
-53 1 -9 -4 -17 -9 -17 -5 0 -7 -11 -5 -25 3 -15 0 -25 -7 -25 -8 0 -8 -3 1
-12 7 -7 8 -16 2 -23 -5 -6 -11 -20 -13 -31 -1 -10 -6 -25 -10 -31 -5 -8 -3
-13 5 -13 8 0 9 -3 3 -8 -6 -4 -12 -20 -14 -37 -1 -16 -8 -36 -13 -42 -7 -9
-7 -13 1 -13 8 0 9 -6 3 -17 -11 -23 -10 -123 2 -142 6 -10 6 -12 -2 -7 -7 4
-12 2 -12 -3 0 -6 6 -11 13 -12 9 0 9 -2 -1 -6 -6 -2 -9 -10 -5 -16 4 -6 8
-31 10 -55 1 -24 8 -51 15 -60 11 -13 11 -15 -2 -7 -12 6 -13 5 -2 -6 6 -7 12
-20 12 -29 1 -8 9 -33 20 -55 11 -22 19 -46 20 -52 0 -7 5 -13 10 -13 6 0 10
-4 10 -10 0 -12 27 -46 54 -69 10 -9 27 -24 38 -33 10 -10 18 -16 18 -13 0 3
8 1 19 -4 15 -8 22 -5 37 15 11 15 24 32 31 39 7 7 9 15 6 19 -4 3 0 6 9 6 8
0 20 11 26 25 6 14 16 25 22 25 5 0 10 6 10 13 0 7 9 23 20 35 12 12 17 22 13
22 -4 0 0 5 10 11 9 6 15 14 12 20 -4 5 -2 9 3 9 5 0 15 14 22 30 7 17 17 30
22 30 5 0 6 5 3 10 -3 5 -1 10 4 10 6 0 11 7 11 15 0 8 3 15 8 15 4 0 13 9 20
21 11 17 11 20 0 13 -7 -4 -2 4 12 19 14 14 32 38 40 54 8 15 21 34 28 41 6 7
12 17 12 22 0 5 6 15 13 22 18 20 57 76 57 83 0 6 13 24 43 57 10 11 16 22 13
25 -4 5 2 15 32 48 6 7 12 18 12 24 0 6 5 11 10 11 6 0 10 7 10 15 0 8 5 15
11 15 5 0 7 5 4 10 -3 5 -2 10 4 10 5 0 20 18 32 40 13 22 27 40 33 40 5 0 6
3 3 6 -4 4 7 24 24 45 17 22 27 39 23 39 -5 0 2 7 14 16 12 8 22 22 22 30 0 8
5 14 12 14 6 0 9 3 5 6 -3 3 3 15 13 27 11 11 28 37 38 58 11 21 21 37 24 34
2 -2 15 16 28 40 14 25 28 45 32 45 5 0 8 7 8 15 0 8 5 15 10 15 6 0 10 7 10
15 0 8 5 15 11 15 5 0 8 4 5 9 -3 5 1 11 9 15 8 3 15 11 15 18 0 8 9 21 20 31
12 10 18 22 15 27 -3 6 -2 10 4 10 5 0 20 18 32 40 13 22 26 40 31 40 4 0 8 7
8 15 0 8 5 15 11 15 5 0 7 5 4 10 -3 6 -2 10 4 10 6 0 18 15 27 33 9 17 20 34
23 37 4 3 21 28 39 55 17 28 37 57 44 65 7 8 12 18 11 22 -2 5 2 8 8 8 5 0 8
4 5 9 -3 5 1 12 9 15 9 3 20 17 25 31 5 14 14 25 20 25 6 0 8 5 5 10 -3 6 -2
10 2 10 5 0 17 16 28 36 11 20 32 50 47 68 15 17 28 39 28 49 0 10 4 16 9 12
5 -3 12 3 16 14 3 10 16 31 30 47 13 15 22 31 19 35 -2 4 3 9 11 13 8 3 15 12
15 20 0 8 4 16 8 18 13 5 132 183 132 197 0 7 4 9 10 6 6 -3 10 1 10 9 0 9 5
16 11 16 5 0 8 4 5 8 -3 5 3 16 12 25 25 23 47 51 44 54 -11 12 104 137 118
128 5 -3 10 -1 10 4 0 14 20 10 38 -6 12 -12 22 -41 24 -70 1 -7 5 -13 9 -13
9 0 7 -20 -4 -37 -4 -6 -2 -15 4 -19 8 -4 7 -9 -2 -15 -8 -5 -9 -9 -4 -9 11 0
12 -67 1 -77 -3 -4 -1 -12 5 -19 7 -9 7 -19 0 -33 -7 -13 -8 -22 -1 -26 5 -3
10 -11 10 -16 0 -6 -4 -8 -8 -5 -10 6 -7 -67 3 -84 5 -8 4 -11 -2 -7 -6 4 -13
0 -17 -8 -3 -8 -1 -17 4 -20 5 -3 5 -18 1 -33 -4 -15 -7 -48 -6 -74 0 -27 -2
-48 -5 -48 -3 0 -6 -24 -7 -53 -2 -82 -7 -107 -18 -107 -5 0 -4 -4 4 -9 10 -7
11 -13 1 -30 -9 -17 -9 -26 1 -37 8 -10 8 -14 0 -14 -6 0 -11 -18 -11 -44 0
-25 -5 -48 -10 -51 -8 -5 -7 -11 1 -21 6 -8 8 -14 3 -14 -5 0 -10 -12 -11 -27
-2 -34 -10 -88 -13 -88 -1 0 -3 -11 -4 -25 0 -14 -5 -31 -9 -37 -5 -8 -3 -13
5 -13 11 0 11 -2 0 -9 -7 -4 -12 -12 -11 -17 1 -5 0 -11 -1 -14 -1 -3 -4 -18
-6 -35 -6 -42 -11 -70 -13 -70 -2 0 -4 -7 -6 -15 -2 -8 -6 -26 -9 -40 -11 -54
-14 -66 -25 -105 -6 -22 -12 -50 -14 -62 -2 -12 -6 -26 -10 -29 -4 -4 -7 -18
-7 -31 0 -13 -6 -23 -12 -23 -9 0 -8 -4 2 -10 9 -6 11 -10 3 -10 -7 0 -10 -7
-7 -15 4 -8 2 -15 -4 -15 -5 0 -13 -7 -16 -16 -3 -8 -2 -13 3 -10 5 4 7 -3 4
-14 -3 -11 -9 -20 -14 -20 -5 0 -8 -3 -8 -7 4 -22 -2 -44 -10 -39 -4 3 -7 -6
-5 -19 1 -14 -2 -25 -7 -25 -6 0 -7 -4 -4 -10 3 -5 2 -10 -4 -10 -5 0 -8 -8
-7 -17 2 -10 -1 -20 -5 -23 -5 -3 -9 -20 -11 -38 -1 -18 -5 -32 -8 -32 -3 0
-5 -13 -4 -30 1 -16 -1 -30 -4 -30 -4 0 -6 -15 -6 -32 1 -18 -4 -39 -10 -47
-7 -10 -7 -13 0 -8 7 4 11 -6 11 -26 1 -71 8 -127 15 -127 5 0 8 -13 8 -29 0
-17 4 -32 9 -36 6 -3 8 -14 6 -25 -2 -12 0 -18 4 -16 4 3 16 -14 26 -37 18
-43 57 -97 107 -152 15 -16 28 -33 28 -37 0 -5 7 -8 15 -8 8 0 15 -4 15 -10 0
-5 9 -10 20 -10 11 0 20 -5 20 -10 0 -12 22 -9 32 5 5 6 8 5 8 -3 0 -10 5 -10
20 -2 11 6 25 8 30 5 6 -3 10 -1 10 5 0 6 5 8 10 5 6 -3 10 -1 10 5 0 7 9 23
20 37 11 14 18 29 15 33 -3 4 2 13 10 20 8 7 15 18 15 26 0 7 6 19 13 26 6 7
21 32 32 55 11 24 24 43 28 43 5 0 5 4 2 10 -3 6 -3 10 2 10 9 0 39 61 35 73
-1 4 5 7 14 7 8 0 13 4 9 9 -3 5 2 16 10 25 9 8 16 19 15 23 0 4 6 15 14 25 8
9 12 18 10 21 -2 2 2 10 11 17 8 7 15 19 15 26 0 8 3 14 8 14 4 0 18 23 31 50
14 27 29 46 34 43 6 -3 7 -1 3 5 -6 11 -2 20 31 56 7 8 9 16 6 20 -4 3 -1 6 6
6 7 0 10 4 7 9 -3 4 3 16 14 26 11 10 20 24 20 32 0 7 5 13 10 13 6 0 10 7 10
15 0 8 5 15 10 15 6 0 10 7 10 15 0 8 5 15 11 15 5 0 7 5 4 10 -3 6 -2 10 4
10 6 0 13 11 17 25 3 14 15 30 25 36 11 5 19 16 19 24 0 8 5 15 11 15 5 0 8 4
4 9 -3 5 3 16 12 23 10 7 19 20 21 28 2 8 10 20 18 26 7 6 14 16 14 23 0 6 5
11 11 11 5 0 7 5 4 10 -3 6 -2 10 4 10 6 0 13 11 17 25 3 14 9 23 13 20 4 -2
16 10 26 28 10 18 27 42 38 55 11 12 17 22 12 22 -4 0 2 9 15 20 13 11 20 20
16 20 -4 0 -1 6 6 14 26 27 48 56 42 56 -3 0 7 11 22 25 15 14 23 25 19 25 -5
0 2 11 15 25 13 14 20 25 16 25 -4 0 -1 6 6 14 7 8 16 12 21 9 4 -2 7 2 7 10
0 7 9 23 20 35 12 12 18 22 15 22 -3 0 4 11 17 24 35 36 69 80 66 86 -1 3 11
19 27 37 50 52 75 84 75 94 0 5 5 9 10 9 6 0 10 7 10 16 0 8 5 12 10 9 6 -3
10 -2 10 2 0 11 25 45 62 84 15 16 25 29 21 29 -3 0 4 9 17 20 13 11 20 20 17
20 -4 0 9 16 29 35 19 19 32 35 29 35 -4 0 9 14 27 30 18 17 29 30 25 30 -4 0
10 18 31 40 20 22 57 63 82 91 94 108 127 143 181 200 32 33 55 59 53 59 -3 0
1 6 8 14 7 8 16 12 20 10 3 -2 8 1 10 7 6 18 44 -25 40 -45 -2 -10 0 -16 6
-12 6 3 9 -2 7 -11 -2 -10 -4 -18 -5 -18 0 0 -3 -18 -5 -40 -4 -33 -10 -67
-14 -82 -1 -2 -2 -6 -3 -10 0 -5 -8 -13 -17 -20 -9 -7 -12 -13 -7 -13 5 0 3
-7 -4 -15 -7 -8 -10 -15 -6 -15 4 0 0 -13 -8 -29 -9 -16 -12 -31 -9 -35 4 -3
0 -6 -7 -6 -7 0 -10 -3 -7 -7 4 -3 2 -12 -4 -20 -6 -7 -8 -13 -4 -13 4 0 2 -7
-5 -15 -7 -8 -10 -15 -7 -15 3 0 0 -12 -8 -27 -8 -15 -12 -30 -9 -35 3 -4 0
-8 -7 -8 -7 0 -10 -3 -6 -6 3 -4 0 -22 -8 -40 -8 -19 -11 -34 -7 -34 4 0 2 -4
-5 -8 -7 -4 -15 -23 -18 -41 -3 -19 -9 -39 -13 -45 -4 -6 -7 -14 -8 -18 -1 -5
-3 -10 -4 -13 -1 -3 -4 -9 -5 -15 -1 -5 -3 -11 -5 -12 -4 -6 -11 -44 -11 -61
0 -9 -4 -15 -10 -12 -5 4 -10 0 -10 -7 -1 -7 -2 -17 -4 -23 -1 -5 -3 -20 -3
-33 -1 -13 -6 -21 -11 -17 -6 3 -8 -4 -6 -15 2 -11 -1 -20 -6 -20 -6 0 -7 -5
-4 -10 4 -6 2 -16 -3 -23 -5 -7 -13 -25 -17 -42 -5 -16 -10 -37 -12 -45 -2 -8
-5 -21 -5 -27 -1 -7 -4 -13 -8 -13 -4 0 -7 -6 -8 -12 -3 -41 -7 -58 -13 -58
-3 0 -6 -10 -5 -22 1 -13 -2 -25 -6 -28 -8 -6 -20 -62 -21 -97 -1 -13 -5 -23
-10 -23 -4 0 -5 -4 -2 -10 3 -5 1 -10 -6 -10 -8 0 -8 -4 1 -15 10 -12 10 -15
0 -15 -7 0 -10 -7 -6 -15 3 -8 1 -15 -4 -15 -5 0 -7 -9 -5 -20 2 -11 1 -20 -3
-20 -4 0 -7 -12 -6 -27 1 -16 -1 -32 -5 -38 -6 -11 -9 -26 -12 -70 -2 -16 -6
-34 -10 -40 -3 -5 -6 -26 -5 -47 0 -20 -2 -34 -6 -31 -5 2 -9 -10 -9 -26 -2
-55 -4 -66 -12 -78 -5 -8 -3 -13 5 -13 8 0 9 -3 3 -8 -6 -4 -10 -14 -10 -22 1
-8 -3 -21 -8 -27 -6 -9 -5 -13 2 -13 9 0 9 -5 1 -20 -6 -11 -8 -25 -5 -30 3
-6 0 -10 -7 -10 -9 0 -9 -3 2 -10 10 -6 11 -10 3 -10 -8 0 -11 -9 -9 -22 2
-13 -1 -29 -6 -35 -7 -9 -7 -13 1 -13 8 0 9 -6 3 -17 -8 -18 -14 -58 -15 -120
-1 -18 -6 -33 -12 -33 -5 0 -3 -5 5 -10 12 -8 12 -10 1 -10 -11 0 -11 -3 -1
-15 7 -8 8 -15 4 -15 -5 0 -11 -21 -12 -47 -2 -27 -4 -64 -5 -83 -1 -19 -6
-38 -12 -42 -6 -5 -4 -8 5 -8 13 0 13 -1 0 -10 -8 -5 -10 -10 -4 -10 6 0 11
-7 11 -15 0 -8 -4 -15 -8 -15 -14 0 -3 -90 13 -108 38 -40 84 -63 129 -65 19
-1 37 -6 41 -12 5 -6 8 -6 8 1 0 6 15 12 33 13 54 3 57 4 57 13 0 4 9 8 19 8
11 0 23 5 26 10 4 6 11 8 16 5 5 -4 9 -1 9 4 0 6 9 11 21 11 11 0 17 5 14 10
-3 6 1 10 9 10 9 0 25 9 35 19 11 11 21 17 24 15 2 -2 10 2 17 11 7 8 19 15
27 15 8 0 11 4 8 10 -3 5 -2 10 3 10 19 0 168 141 255 241 20 24 47 55 60 69
12 13 21 28 20 32 -2 5 1 8 6 8 4 0 21 18 36 40 15 22 32 37 38 33 5 -3 7 -1
4 4 -4 6 0 16 8 23 8 7 12 16 9 21 -3 5 2 9 10 9 9 0 16 6 16 13 0 7 14 29 30
47 17 18 30 37 30 42 0 10 16 31 43 56 9 9 17 20 17 25 0 4 18 32 40 62 22 30
37 55 33 55 -4 0 -2 4 6 9 19 12 24 77 10 136 -12 48 -56 106 -86 113 -7 1
-19 3 -25 5 -7 1 -17 7 -21 12 -6 7 -10 6 -13 -2 -3 -7 -11 -10 -17 -8 -7 2
-43 6 -82 9 -91 6 -111 13 -131 43 -9 14 -12 23 -7 20 5 -3 9 17 8 46 -1 29 2
59 6 68 5 9 3 21 -3 27 -9 9 -9 12 2 12 7 0 10 3 7 7 -4 3 -2 12 4 20 9 10 8
13 -1 13 -8 0 -9 4 -3 13 5 6 10 23 11 36 0 13 5 27 9 30 4 3 9 15 9 26 1 20
11 76 14 85 1 3 2 8 1 13 0 4 3 7 8 7 4 0 6 11 4 23 -3 13 1 30 9 38 12 13 16
29 20 87 1 12 6 22 11 22 4 0 6 4 2 9 -3 5 -1 12 4 15 5 3 7 14 4 25 -2 10 1
24 9 32 7 8 14 30 16 49 2 38 8 74 12 78 1 1 3 5 4 10 14 58 19 88 18 95 -1 4
3 7 9 7 5 0 8 4 5 8 -4 7 3 50 21 117 3 11 6 32 7 48 0 15 5 27 10 27 4 0 6 7
2 15 -3 8 -2 15 3 15 5 0 8 8 8 18 0 43 3 53 16 46 8 -5 8 -2 -2 9 -7 9 -10
17 -5 17 5 0 10 12 11 28 3 29 10 67 13 67 3 0 11 56 13 87 1 14 5 24 9 22 4
-3 6 4 6 13 0 10 3 32 6 48 4 17 10 48 13 70 3 22 8 42 12 45 4 3 7 20 6 38 0
17 3 32 8 32 4 0 6 4 2 9 -3 5 -1 12 5 16 5 3 10 11 10 16 0 6 -5 7 -12 3 -7
-5 -8 -3 -2 7 4 8 9 19 10 24 1 6 7 37 15 70 7 33 13 72 13 87 0 15 3 25 7 23
3 -3 7 5 7 18 1 21 9 62 12 62 2 0 11 75 12 95 0 8 5 21 11 28 6 8 5 12 -4 12
-9 0 -10 3 -4 8 12 8 16 23 18 69 2 17 6 35 10 39 4 4 2 13 -3 20 -12 14 -10
36 5 46 7 5 6 8 -1 8 -6 0 -10 19 -10 43 1 23 -3 45 -9 50 -6 4 -5 10 4 16 8
5 9 11 3 15 -6 4 -9 15 -7 26 2 11 0 20 -4 20 -4 0 -8 6 -8 13 -3 44 -8 67
-16 67 -4 0 -6 4 -2 9 3 5 -2 17 -11 25 -8 9 -13 16 -10 16 3 0 0 13 -5 30 -6
17 -16 27 -22 23 -6 -3 -7 -1 -3 5 4 6 -2 19 -14 29 -11 10 -20 23 -20 30 0 7
-6 13 -14 13 -8 0 -18 9 -21 20 -4 11 -11 18 -16 15 -5 -4 -9 -1 -9 5 0 6 -4
8 -10 5 -5 -3 -10 -1 -10 5 0 6 -4 8 -10 5 -5 -3 -10 0 -10 7 0 8 -12 15 -27
16 -15 1 -29 6 -32 11 -8 11 -111 11 -111 -1 0 -5 -4 -7 -9 -4 -5 3 -14 -1
-21 -9 -7 -8 -19 -15 -26 -15 -8 0 -14 -5 -14 -11 0 -5 -4 -7 -10 -4 -5 3 -10
1 -10 -5 0 -6 -4 -9 -9 -6 -5 3 -12 -1 -15 -10 -4 -9 -9 -14 -12 -11 -4 3 -11
1 -18 -4 -6 -6 -44 -31 -83 -56 -40 -25 -73 -50 -73 -55 0 -5 -4 -7 -8 -4 -5
3 -18 -2 -28 -12 -22 -20 -71 -52 -79 -52 -3 0 -20 -14 -37 -31 -18 -17 -45
-38 -60 -47 -16 -9 -28 -23 -28 -31 0 -8 -3 -11 -6 -8 -4 3 -19 -7 -34 -23
-16 -17 -34 -30 -41 -30 -7 0 -10 -3 -6 -6 7 -8 -17 -34 -32 -34 -6 0 -11 -7
-11 -16 0 -8 -4 -12 -10 -9 -5 3 -10 1 -10 -5 0 -6 -17 -28 -37 -50 -55 -57
-93 -100 -91 -103 1 -1 -12 -17 -30 -35 -18 -18 -32 -37 -32 -43 0 -6 -4 -7
-10 -4 -6 3 -10 2 -10 -3 0 -5 -9 -20 -21 -33 -11 -13 -29 -34 -40 -47 -10
-12 -19 -27 -19 -32 0 -6 -3 -10 -7 -10 -5 0 -24 -23 -43 -50 -19 -27 -38 -50
-42 -50 -5 0 -8 -6 -8 -14 0 -8 -7 -17 -16 -20 -9 -4 -14 -9 -11 -12 3 -3 -2
-14 -11 -23 -32 -33 -52 -61 -52 -71 0 -5 -6 -13 -12 -17 -7 -4 -31 -35 -53
-68 -22 -33 -42 -62 -45 -65 -16 -14 -49 -68 -45 -74 3 -3 2 -4 -2 -1 -7 5
-48 -56 -45 -67 1 -5 -3 -8 -8 -8 -6 0 -15 -11 -20 -25 -5 -14 -15 -25 -21
-25 -7 0 -10 -3 -6 -6 5 -6 0 -15 -30 -49 -7 -7 -13 -18 -13 -22 0 -5 -9 -19
-20 -31 -12 -12 -18 -22 -15 -22 3 0 -3 -10 -14 -22 -11 -11 -18 -25 -15 -30
3 -4 0 -8 -6 -8 -6 0 -15 -11 -20 -25 -5 -14 -14 -25 -20 -25 -6 0 -8 -4 -5
-10 3 -5 2 -10 -4 -10 -6 0 -13 -11 -17 -25 -3 -14 -10 -25 -15 -25 -5 0 -9
-7 -9 -15 0 -8 -4 -15 -10 -15 -5 0 -10 -7 -10 -15 0 -8 -4 -15 -10 -15 -5 0
-10 -6 -10 -13 0 -8 -11 -27 -24 -42 -14 -16 -23 -32 -20 -37 3 -4 -2 -11 -10
-14 -9 -3 -13 -10 -10 -15 3 -5 0 -9 -6 -9 -6 0 -9 -4 -6 -9 3 -5 -1 -12 -10
-15 -8 -3 -12 -10 -9 -16 3 -5 1 -10 -4 -10 -6 0 -11 -6 -11 -13 0 -17 -33
-36 -56 -33 -23 3 -25 35 -9 101 9 32 9 45 1 45 -7 0 -7 3 -1 8 6 4 11 16 13
27 1 11 5 36 8 55 3 19 6 54 7 77 1 24 5 43 8 43 4 0 7 19 8 43 3 57 6 80 13
92 3 6 5 27 4 48 -1 20 1 37 5 37 4 0 6 9 4 20 -2 11 1 22 7 26 6 4 5 10 -3
15 -8 5 -9 9 -3 9 6 0 10 16 9 35 -1 20 3 35 9 35 6 0 4 5 -4 10 -8 5 -10 10
-4 10 10 0 13 22 17 117 1 17 5 29 9 27 3 -2 5 18 4 46 -2 27 0 50 5 50 5 0 6
7 3 15 -4 9 0 15 7 15 9 0 10 3 4 8 -12 9 -18 32 -7 32 4 0 8 24 9 53 3 60 6
78 15 92 4 6 3 17 -2 25 -5 8 -5 21 -1 29 4 9 7 32 6 51 0 19 7 41 15 48 8 8
10 11 4 8 -7 -3 -11 10 -10 39 0 25 5 45 11 45 5 0 3 5 -5 10 -8 5 -10 10 -4
10 6 0 11 10 10 23 -1 12 1 34 5 50 5 18 4 27 -4 27 -8 0 -8 3 -2 8 6 4 10 23
10 42 -1 19 3 41 8 48 6 8 5 12 -3 12 -9 0 -7 6 5 20 16 18 16 20 1 26 -9 3
-13 11 -9 17 10 16 14 69 5 64 -4 -3 -7 15 -8 40 0 27 -6 48 -15 54 -10 6 -10
9 -1 9 10 0 10 4 0 23 -7 12 -16 24 -20 27 -3 3 -8 12 -10 20 -2 8 -11 21 -20
28 -10 7 -18 16 -18 20 0 4 28 21 63 37 34 17 68 36 75 43 13 11 27 16 45 13
4 0 7 4 7 11 0 6 3 9 6 5 3 -3 15 3 27 14 11 10 27 19 34 19 8 0 47 18 88 40
41 22 75 37 75 34 0 -4 9 1 19 10 11 10 24 15 29 12 6 -3 12 0 15 8 3 8 19 17
36 21 17 4 31 11 31 16 0 6 4 8 9 4 5 -3 12 -1 16 5 4 6 11 8 16 5 5 -4 9 -3
9 2 0 4 15 14 33 22 17 8 52 23 77 34 25 12 51 20 59 18 7 -1 10 2 6 8 -3 6
-3 11 2 12 27 2 47 9 52 17 3 5 14 8 24 6 9 -1 17 3 17 9 0 5 3 8 6 4 4 -3 13
1 21 9 8 8 18 12 23 9 4 -3 13 2 20 10 6 7 18 11 26 8 8 -3 14 0 14 6 0 6 4
11 9 11 5 0 22 5 38 12 15 6 31 12 36 13 4 2 10 4 15 5 4 1 10 2 15 1 4 0 7 4
7 10 0 6 7 8 16 5 8 -3 13 -2 10 3 -3 5 7 11 22 14 15 3 45 14 67 23 41 18 61
24 82 26 7 1 10 5 7 10 -3 4 0 9 5 9 12 2 26 5 39 9 4 1 10 2 15 1 4 0 7 3 7
9 0 5 7 7 15 4 8 -4 15 -1 15 5 0 6 3 10 8 9 11 -2 66 14 78 23 9 7 40 16 67
18 5 1 5 6 1 13 -4 7 -3 8 5 4 6 -4 17 -3 24 2 7 5 23 8 35 7 13 -1 26 4 29
12 3 7 9 10 14 7 5 -3 9 -1 9 5 0 5 8 8 18 6 9 -1 26 2 37 8 11 6 23 12 28 13
4 1 8 2 10 3 1 2 13 5 27 7 13 2 27 8 30 12 3 4 16 9 30 11 14 1 27 6 30 10 3
3 10 7 16 8 6 1 22 4 35 7 14 2 41 11 62 19 20 9 37 13 37 10 0 -3 6 0 13 6 8
6 17 8 20 4 4 -3 12 -1 19 4 11 8 34 17 78 28 99 24 180 50 180 57 0 4 5 8 11
8 5 0 7 -6 3 -12 -5 -9 -2 -9 9 1 9 7 17 10 17 7 0 -4 8 -2 19 3 19 11 71 23
106 25 11 0 22 3 25 6 6 6 104 32 180 47 14 2 32 7 40 10 8 3 26 7 40 9 14 2
36 6 50 10 41 12 53 14 96 18 22 2 49 8 60 13 10 6 29 9 42 8 12 -1 22 1 22 5
0 4 10 6 23 6 12 -1 28 2 35 7 8 6 12 5 12 -4 0 -11 2 -11 9 -1 7 12 64 23
129 25 12 1 22 4 22 7 0 3 10 6 23 7 39 0 141 14 146 18 2 3 11 -1 19 -8 13
-9 14 -9 8 1 -7 12 -1 14 57 14 15 1 27 5 27 11 0 8 3 8 11 0 7 -7 22 -8 45
-1 19 5 39 6 44 3 6 -3 10 -3 10 2 0 4 32 8 71 8 39 0 73 4 76 9 3 4 9 2 14
-5 5 -8 9 -9 9 -4 0 12 72 17 248 18 62 1 102 5 102 12 0 7 3 7 8 0 4 -5 16
-10 27 -10z m-5358 -1920 c0 -8 -4 -15 -9 -15 -5 0 -7 -4 -4 -9 4 -5 3 -11 -1
-13 -5 -1 -17 -21 -28 -43 -10 -22 -28 -52 -38 -67 -10 -16 -15 -28 -11 -28 4
0 0 -8 -9 -18 -10 -10 -14 -22 -10 -25 3 -4 1 -7 -5 -7 -7 0 -12 -7 -12 -15 0
-8 -5 -15 -11 -15 -5 0 -8 -4 -4 -9 3 -6 -1 -13 -9 -18 -8 -4 -15 -10 -15 -13
0 -13 -16 -47 -29 -62 -8 -10 -12 -18 -9 -18 4 0 0 -8 -8 -17 -8 -10 -15 -22
-15 -26 1 -4 -8 -19 -20 -34 -11 -14 -20 -31 -20 -39 0 -7 -3 -14 -7 -16 -5
-1 -21 -29 -38 -60 -16 -32 -33 -58 -37 -58 -5 0 -8 -6 -8 -14 0 -7 -9 -25
-21 -40 -11 -14 -18 -26 -14 -26 4 0 -3 -12 -14 -26 -12 -15 -21 -33 -21 -40
0 -8 -4 -14 -10 -14 -5 0 -10 -6 -10 -13 0 -7 -6 -19 -12 -25 -7 -7 -13 -16
-13 -20 -1 -16 -39 -71 -47 -66 -4 3 -5 -1 -2 -9 3 -8 -2 -22 -11 -31 -9 -9
-14 -16 -10 -16 3 0 -8 -20 -24 -44 -17 -24 -27 -46 -24 -50 4 -3 2 -6 -4 -6
-6 0 -16 -13 -23 -30 -7 -16 -17 -30 -22 -30 -5 0 -7 -4 -3 -9 3 -5 1 -12 -5
-16 -6 -4 -8 -11 -5 -16 4 -5 2 -9 -4 -9 -6 0 -18 -16 -27 -35 -9 -19 -20 -35
-25 -35 -5 0 -8 -3 -7 -7 4 -13 -36 -73 -48 -73 -6 0 -14 -9 -17 -21 -3 -12
-10 -18 -15 -15 -6 3 -12 -1 -16 -9 -3 -8 -12 -15 -19 -15 -8 0 -27 -10 -43
-22 -15 -13 -25 -17 -20 -10 4 7 2 12 -4 12 -6 0 -8 4 -5 10 3 5 9 20 11 32 3
13 10 41 15 63 5 22 12 51 16 65 3 14 6 33 7 43 0 9 3 17 6 17 4 0 7 6 7 13 1
22 8 42 18 49 6 5 6 8 -2 8 -9 0 -8 9 3 35 8 19 16 49 18 67 3 18 5 33 6 33 5
0 26 106 36 185 3 25 9 50 13 55 4 6 7 29 7 52 -1 24 2 43 6 43 4 0 5 9 3 20
-2 11 -1 20 3 20 4 0 7 14 8 31 1 17 9 36 20 44 11 7 37 29 59 49 22 20 48 38
58 42 9 3 15 10 12 15 -4 5 1 9 9 9 9 0 16 3 16 8 0 4 18 18 40 32 22 14 40
31 40 38 0 7 5 10 10 7 6 -3 10 -1 10 4 0 6 6 11 13 11 7 0 19 9 27 20 8 11
20 20 26 20 6 0 18 7 25 16 8 9 30 27 49 39 19 13 45 32 57 44 12 12 25 21 27
21 6 0 80 54 121 88 11 9 21 15 23 13 2 -1 20 11 40 28 20 17 37 30 38 31 0 0
1 -7 1 -15z m-1257 -427 c0 -5 5 -6 10 -3 9 5 14 -16 13 -52 -1 -7 3 -13 7
-13 18 0 -5 -45 -42 -82 -21 -21 -38 -36 -38 -33 0 3 -8 -3 -18 -12 -11 -10
-18 -20 -16 -23 1 -3 -9 -14 -24 -25 -15 -10 -53 -46 -84 -81 -31 -34 -59 -59
-62 -56 -3 3 -6 0 -6 -5 0 -6 -21 -33 -47 -60 -26 -26 -47 -51 -46 -55 2 -4
-6 -10 -17 -13 -10 -3 -22 -15 -25 -26 -4 -10 -11 -19 -16 -19 -6 0 -7 -4 -4
-10 4 -6 -1 -7 -11 -3 -13 5 -15 3 -9 -7 5 -9 4 -11 -4 -6 -8 6 -9 12 -2 20 6
7 8 16 4 19 -3 4 -1 7 6 7 7 0 9 5 6 10 -3 6 -1 10 5 10 6 0 9 4 5 9 -3 5 -1
12 5 16 6 4 8 11 5 16 -4 5 -1 9 5 9 6 0 9 4 5 9 -3 5 -1 12 5 16 6 4 8 11 5
16 -4 5 1 9 9 9 10 0 13 6 10 15 -4 8 -1 15 6 15 7 0 10 6 7 13 -3 8 3 20 14
28 10 7 19 18 19 24 0 6 9 21 20 33 12 12 18 22 14 22 -4 0 3 8 14 19 12 10
22 22 22 26 0 4 10 18 23 32 21 24 172 174 192 191 13 11 35 11 35 0z"/>
</g>
</svg>
